<?xml version="1.0" encoding="UTF-8" standalone="no"?>
<!-- Created with Inkscape (http://www.inkscape.org/) -->

<svg xmlns:dc="http://purl.org/dc/elements/1.1/" xmlns:cc="http://creativecommons.org/ns#" xmlns:rdf="http://www.w3.org/1999/02/22-rdf-syntax-ns#" xmlns:svg="http://www.w3.org/2000/svg" xmlns="http://www.w3.org/2000/svg" xmlns:xlink="http://www.w3.org/1999/xlink" xmlns:sodipodi="http://sodipodi.sourceforge.net/DTD/sodipodi-0.dtd" xmlns:inkscape="http://www.inkscape.org/namespaces/inkscape" width="256" height="256" viewBox="0 0 256 256" id="svg2" version="1.1" inkscape:version="0.91 r13725" sodipodi:docname="pymrt_logo.svg" inkscape:export-filename="pymrt_logo.png" inkscape:export-xdpi="90" inkscape:export-ydpi="90">
  <defs id="defs4">
    <linearGradient inkscape:collect="always" id="rod_grad">
      <stop style="stop-color:#ffffff;stop-opacity:1" offset="0" id="stop4192" />
      <stop style="stop-color:#808080;stop-opacity:1" offset="1" id="stop4194" />
    </linearGradient>
    <inkscape:perspective sodipodi:type="inkscape:persp3d" inkscape:vp_x="0 : 128 : 1" inkscape:vp_y="0 : 1000 : 0" inkscape:vp_z="256 : 128 : 1" inkscape:persp3d-origin="128 : 85.333333 : 1" id="perspective3336" />
    <linearGradient gradientUnits="userSpaceOnUse" y2="131.85291" x2="110.14919" y1="77.070274" x1="55.549179" id="linearGradient9521" xlink:href="#linearGradient9515" inkscape:collect="always" gradientTransform="translate(-161.50092,734.49569)" />
    <linearGradient id="linearGradient9515" inkscape:collect="always">
      <stop id="stop9517" offset="0" style="stop-color:#387eb8;stop-opacity:1" />
      <stop id="stop9519" offset="1" style="stop-color:#366994;stop-opacity:1" />
    </linearGradient>
    <linearGradient gradientUnits="userSpaceOnUse" y2="168.1012" x2="147.77737" y1="111.92053" x1="89.136749" id="linearGradient11307" xlink:href="#linearGradient11301" inkscape:collect="always" gradientTransform="translate(-161.50092,734.49569)" />
    <linearGradient id="linearGradient11301" inkscape:collect="always">
      <stop id="stop11303" offset="0" style="stop-color:#ffe052;stop-opacity:1" />
      <stop id="stop11305" offset="1" style="stop-color:#ffc331;stop-opacity:1" />
    </linearGradient>
    <linearGradient inkscape:collect="always" xlink:href="#rod_grad" id="linearGradient4188" x1="128" y1="956.36218" x2="144" y2="956.36218" gradientUnits="userSpaceOnUse" spreadMethod="reflect" />
    <linearGradient inkscape:collect="always" xlink:href="#linearGradient9515" id="linearGradient4202" x1="96" y1="1004.3622" x2="160" y2="1004.3622" gradientUnits="userSpaceOnUse" gradientTransform="translate(0,-8e-5)" />
    <linearGradient inkscape:collect="always" xlink:href="#linearGradient9515" id="linearGradient4204" x1="64" y1="956.36218" x2="192" y2="956.36218" gradientUnits="userSpaceOnUse" gradientTransform="translate(0,-8e-5)" />
    <linearGradient inkscape:collect="always" xlink:href="#linearGradient9515" id="linearGradient4206" x1="32" y1="900.36218" x2="224" y2="900.36218" gradientUnits="userSpaceOnUse" gradientTransform="translate(0,-8e-5)" />
    <linearGradient inkscape:collect="always" xlink:href="#linearGradient11301" id="linearGradient4214" x1="112" y1="1028.3622" x2="152" y2="1028.3622" gradientUnits="userSpaceOnUse" gradientTransform="translate(0,-8e-5)" />
    <linearGradient inkscape:collect="always" xlink:href="#linearGradient11301" id="linearGradient4216" x1="80" y1="980.36218" x2="176" y2="980.36218" gradientUnits="userSpaceOnUse" gradientTransform="translate(0,-8e-5)" />
    <linearGradient inkscape:collect="always" xlink:href="#linearGradient11301" id="linearGradient4218" x1="48" y1="932.36218" x2="200" y2="932.36218" gradientUnits="userSpaceOnUse" gradientTransform="translate(0,-8e-5)" />
    <linearGradient inkscape:collect="always" xlink:href="#linearGradient11301" id="linearGradient4220" x1="32" y1="876.36218" x2="88" y2="876.36218" gradientUnits="userSpaceOnUse" gradientTransform="translate(0,-8e-5)" />
    <radialGradient inkscape:collect="always" xlink:href="#rod_grad" id="radialGradient4238" cx="128" cy="828.36218" fx="128" fy="828.36218" r="32" gradientTransform="translate(0,-5.924908e-4)" gradientUnits="userSpaceOnUse" />
  </defs>
  <sodipodi:namedview id="base" pagecolor="#ffffff" bordercolor="#666666" borderopacity="1.0" inkscape:pageopacity="0.0" inkscape:pageshadow="2" inkscape:zoom="3.9877532" inkscape:cx="84.768809" inkscape:cy="108.35662" inkscape:document-units="px" inkscape:current-layer="layer1" showgrid="true" units="px" inkscape:snap-grids="true" inkscape:window-width="1920" inkscape:window-height="1056" inkscape:window-x="1920" inkscape:window-y="0" inkscape:window-maximized="1" inkscape:snap-object-midpoints="false" inkscape:snap-center="true" inkscape:snap-page="true" inkscape:snap-bbox="true" inkscape:bbox-nodes="false" inkscape:bbox-paths="false" inkscape:snap-bbox-edge-midpoints="false" inkscape:snap-bbox-midpoints="false" inkscape:object-paths="false" inkscape:snap-intersection-paths="false" inkscape:object-nodes="true" inkscape:snap-smooth-nodes="true" inkscape:snap-midpoints="false" inkscape:snap-nodes="true" inkscape:snap-text-baseline="true">
    <inkscape:grid type="xygrid" id="grid4156" />
  </sodipodi:namedview>
  <metadata id="metadata7">
    <rdf:RDF>
      <cc:Work rdf:about="">
        <dc:format>image/svg+xml</dc:format>
        <dc:type rdf:resource="http://purl.org/dc/dcmitype/StillImage" />
        <dc:title />
      </cc:Work>
    </rdf:RDF>
  </metadata>
  <g inkscape:label="Layer 1" inkscape:groupmode="layer" id="layer1" transform="translate(0,-796.36216)">
    <path style="fill:url(#linearGradient4188);fill-rule:evenodd;stroke:none;stroke-width:1px;stroke-linecap:butt;stroke-linejoin:miter;stroke-opacity:1;fill-opacity:1" d="m 112,852.36216 8,192.00004 8,8 8,-8 8,-192.00004" id="path4164" inkscape:connector-curvature="0" sodipodi:nodetypes="ccccc" />
    <path id="path8615" d="m -61.750922,801.96444 c -28.031732,0 -26.28125,12.15625 -26.28125,12.15625 l 0.03125,12.59375 26.75,0 0,3.78125 -37.375,0 c 0,0 -17.937498,-2.03428 -17.937498,26.25 0,28.28427 15.65625,27.28125 15.65625,27.28125 l 9.343748,0 0,-13.125 c 0,0 -0.503652,-15.65625 15.40625,-15.65625 15.9099,0 26.53125,0 26.53125,0 0,0 14.90625,0.24096 14.90625,-14.40625 0,-14.64721 0,-24.21875 0,-24.21875 0,0 2.26318,-14.65625 -27.03125,-14.65625 z m -14.75,8.46875 c 2.661429,0 4.8125,2.15107 4.8125,4.8125 2e-6,2.66143 -2.151071,4.8125 -4.8125,4.8125 -2.661429,0 -4.8125,-2.15107 -4.8125,-4.8125 -2e-6,-2.66143 2.151071,-4.8125 4.8125,-4.8125 z" style="color:#000000;display:inline;overflow:visible;visibility:visible;opacity:1;fill:url(#linearGradient9521);fill-opacity:1;fill-rule:nonzero;stroke:none;stroke-width:1;stroke-linecap:butt;stroke-linejoin:miter;stroke-miterlimit:4;stroke-dasharray:none;stroke-dashoffset:0;stroke-opacity:1;marker:none;marker-start:none;marker-mid:none;marker-end:none" inkscape:connector-curvature="0" />
    <path style="color:#000000;display:inline;overflow:visible;visibility:visible;opacity:1;fill:url(#linearGradient11307);fill-opacity:1;fill-rule:nonzero;stroke:none;stroke-width:1;stroke-linecap:butt;stroke-linejoin:miter;stroke-miterlimit:4;stroke-dasharray:none;stroke-dashoffset:0;stroke-opacity:1;marker:none;marker-start:none;marker-mid:none;marker-end:none" d="m -60.954822,911.81054 c 28.03174,0 26.28125,-12.15625 26.28125,-12.15625 l -0.0312,-12.59375 -26.75,0 0,-3.78125 37.375,0 c 0,0 17.9374998,2.03427 17.9374998,-26.25001 10e-6,-28.28427 -15.6562498,-27.28125 -15.6562498,-27.28125 l -9.34375,0 0,13.125 c 0,0 0.50366,15.65625 -15.40625,15.65625 -15.909902,0 -26.531252,0 -26.531252,0 0,0 -14.90625,-0.24096 -14.90625,14.40626 0,14.6472 0,24.21875 0,24.21875 0,0 -2.26318,14.65625 27.031252,14.65625 z m 14.75,-8.46875 c -2.66143,0 -4.8125,-2.15107 -4.8125,-4.8125 0,-2.66143 2.15107,-4.8125 4.8125,-4.8125 2.66143,0 4.8125,2.15107 4.8125,4.8125 1e-5,2.66143 -2.15107,4.8125 -4.8125,4.8125 z" id="path8620" inkscape:connector-curvature="0" />
    <path style="fill:url(#linearGradient4220);fill-opacity:1;fill-rule:evenodd;stroke:none;stroke-width:1px;stroke-linecap:butt;stroke-linejoin:miter;stroke-opacity:1" d="m 76,860.36212 c -1.885618,0 -4,-2.11438 -4,-4 0,-1.88562 2.114382,-4 4,-4 1.885618,0 4,2.11438 4,4 0,1.88562 -2.114382,4 -4,4 z M 64,892.362 c 0,0 -29.484544,16.62074 -40,8.00016 -12.373525,-10.14382 -8.411719,-34.38967 0,-48.00012 3.134855,-5.0723 10.196664,-6.63002 16,-8 12.976653,-3.06337 27.023347,-3.06337 40,0 5.803336,1.36998 16,8 16,8 l 0,16.00008 -32,0 z" id="path4336" inkscape:connector-curvature="0" sodipodi:nodetypes="aaaaacaaaacccc" />
    <path style="fill:url(#linearGradient4206);fill-opacity:1;fill-rule:evenodd;stroke:none;stroke-width:1px;stroke-linecap:butt;stroke-linejoin:miter;stroke-opacity:1" d="m 160,868.36204 0,-16 c 0,0 10.19666,-6.63002 16,-8 12.97665,-3.06337 27.02335,-3.06337 40,0 5.80334,1.36998 12.86515,2.9277 16,8 8.41169,13.6104 4.63652,32.68649 0,47.99996 -2.78622,9.2023 -7.42199,19.65699 -16,24.00016 C 163.60576,950.89012 40,916.362 40,916.362 l 0,16.00016 c 0,0 -13.113624,-9.03178 -16,-16.00016 -3.061449,-7.39104 -5.656867,-18.34316 0,-24 24,-23.99988 168,-11.99988 168,-11.99988 l 0,-12 z m 16,-11.99992 c 0,1.88562 2.11438,4 4,4 1.88562,0 4,-2.11438 4,-4 0,-1.88562 -2.11438,-4 -4,-4 -1.88562,0 -4,2.11438 -4,4 z" id="path4328" inkscape:connector-curvature="0" sodipodi:nodetypes="ccaaaaaccascccaaaaa" />
    <path style="fill:url(#linearGradient4218);fill-opacity:1;fill-rule:evenodd;stroke:none;stroke-width:1px;stroke-linecap:butt;stroke-linejoin:miter;stroke-opacity:1" d="m 40,916.36208 c 24,-15.99996 152,-15.99996 176,0 6.65638,4.43758 3.06144,16.6089 0,23.99992 -2.88638,6.96838 -16,16.00016 -16,16.00016 l 0,-16.00016 c 0,0 -122.287638,37.71236 -160,0 -5.656835,-5.65684 -6.656388,-19.56234 0,-23.99992 z" id="path4330" inkscape:connector-curvature="0" sodipodi:nodetypes="ssaccas" />
    <path style="fill:url(#linearGradient4204);fill-opacity:1;fill-rule:evenodd;stroke:none;stroke-width:1px;stroke-linecap:butt;stroke-linejoin:miter;stroke-opacity:1" d="m 200,940.362 c -24,-15.99988 -120,-15.99988 -144,0 -6.656414,4.43758 -3.061449,16.60896 0,24 2.886376,6.96838 16,16.00016 16,16.00016 L 72,964.362 c 0,0 97.83011,30.16989 128,0 5.65685,-5.65685 6.65641,-19.56242 0,-24 z" id="path4332" inkscape:connector-curvature="0" sodipodi:nodetypes="ssaccas" />
    <path style="fill:url(#linearGradient4216);fill-opacity:1;fill-rule:evenodd;stroke:none;stroke-width:1px;stroke-linecap:butt;stroke-linejoin:miter;stroke-opacity:1" d="m 72,964.362 c -5.656885,5.65684 -5.656864,18.34318 0,24.00004 22.627417,22.62746 96,0 96,0 l 0,16.00016 c 0,0 13.11362,-9.03179 16,-16.00016 3.06146,-7.39105 5.65688,-18.3432 0,-24.00004 -16,-15.99988 -96,-15.99988 -112,0 z" id="path4334" inkscape:connector-curvature="0" sodipodi:nodetypes="saccass" />
    <path style="fill:url(#linearGradient4202);fill-opacity:1;fill-rule:evenodd;stroke:none;stroke-width:1px;stroke-linecap:butt;stroke-linejoin:miter;stroke-opacity:1" d="m 168,988.36204 c 5.65689,5.65687 5.65687,18.34316 0,24.00016 -15.08494,15.0849 -64,0 -64,0 l 0,16 c 0,0 -13.11362,-9.0317 -16,-16 -3.061492,-7.3911 -5.656896,-18.34329 0,-24.00016 16,-15.99992 64,-15.99992 80,0 z" id="path4334-3" inkscape:connector-curvature="0" sodipodi:nodetypes="saccass" />
    <path style="fill:url(#linearGradient4214);fill-opacity:1;fill-rule:evenodd;stroke:none;stroke-width:1px;stroke-linecap:butt;stroke-linejoin:miter;stroke-opacity:1" d="m 104,1036.3622 c 8,8 16,0 24,-4 10.18934,-5.0946 23.46617,2.166 32,12 24,-64.00004 -96,-48.00008 -56,-8 z" id="path4338" inkscape:connector-curvature="0" sodipodi:nodetypes="cscc" />
    <ellipse style="opacity:1;fill:url(#radialGradient4238);fill-opacity:1.0;stroke:none;stroke-width:2;stroke-linecap:round;stroke-miterlimit:4;stroke-dasharray:none;stroke-dashoffset:0;stroke-opacity:1" id="path4222" cx="128" cy="828.36218" rx="32" ry="32.000023" />
    <text xml:space="preserve" style="font-style:normal;font-variant:normal;font-weight:normal;font-stretch:normal;font-size:24px;line-height:426.00002289%;font-family:'Droid Sans';-inkscape-font-specification:'Droid Sans';text-align:center;letter-spacing:0px;word-spacing:0px;text-anchor:middle;fill:#000000;fill-opacity:1;stroke:none;stroke-width:1px;stroke-linecap:butt;stroke-linejoin:miter;stroke-opacity:1" x="-282.87393" y="836.36218" id="text4244" sodipodi:linespacing="426.00002%" transform="matrix(1,0,0.57735027,1,0,0)"><tspan sodipodi:role="line" id="tspan4246" x="-282.87393" y="836.36218" style="font-size:30px" /></text>
    <text xml:space="preserve" style="font-style:normal;font-variant:normal;font-weight:normal;font-stretch:normal;font-size:24px;line-height:426.00002289%;font-family:'Droid Sans';-inkscape-font-specification:'Droid Sans';text-align:center;letter-spacing:0px;word-spacing:0px;text-anchor:middle;fill:#000000;fill-opacity:1;stroke:none;stroke-width:1px;stroke-linecap:butt;stroke-linejoin:miter;stroke-opacity:1" x="530.8739" y="836.36218" id="text4248" sodipodi:linespacing="426.00002%" transform="matrix(1,0,-0.57735027,1,0,0)"><tspan sodipodi:role="line" id="tspan4250" x="530.8739" y="836.36218" style="font-size:30px" /></text>
  </g>
</svg>
